# xmcd
#
# Track frame offsets: 
#        150
#        17679
#        31262
#        42735
#        54200
#        67412
#        78925
#        92571
#        108543
#        125692
#        139908
#        157763
#        173171
#        185985
#        197610
#        210058
#        228578
#        244697
#        259986
#        276057
#        289116
#
# Disc length: 4045 seconds
#
# Revision: 0
# Processed by: cddbd v1.5.2PL0 Copyright (c) Steve Scherf et al.
# Submitted via: ExactAudioCopy v0.99pb5
#
DISCID=2e0fcb15
DTITLE=Various Artist - Original Hits - Country Disc4
DYEAR=2009
DGENRE=Country
TTITLE0=Kenny Rogers - Lady
TTITLE1=John Denver - Annie's Song
TTITLE2=Slim Whitman - Happy Anniversary
TTITLE3=Glen Campbell And Bobbie Gentry - All I Have To Do Is Dream
TTITLE4=Tammy Wynette - D.I.V.O.R.C.E
TTITLE5=George Jones - She Thinks I Still Care
TTITLE6=Willie Nelson - Funny How Time Slips Away
TTITLE7=Billie Jo Spears - Blanket On The Ground
TTITLE8=Don Williams - Old Coyote Town
TTITLE9=Dr. Hook - If Not You
TTITLE10=Eddie Rabbitt And Crystal Gayle - You And I
TTITLE11=Deana Carter - Did I Shave My Legs For This?
TTITLE12=Faron Young - Your Cheatin' Heart
TTITLE13=Hank Thompson - Hangover Tavern
TTITLE14=Jean Shepard - Think I'll Go Somewhere And Cry Myself To Slee
TTITLE14=p
TTITLE15=Joe South - Walk A Mile In My Shoes
TTITLE16=Linda Davis - Just Enough Rope
TTITLE17=The Nitty Gritty Dirt Band - Jambalaya (On The Bayou)
TTITLE18=Steve Wariner - Road Trippin'
TTITLE19=Suzy Bogguss - I Want To Be A Cowboy's Sweetheart
TTITLE20=Chris Ledoux With Charlie Daniels - Cowboys Like A Little Roc
TTITLE20=k And Roll
EXTD=
EXTT0=
EXTT1=
EXTT2=
EXTT3=
EXTT4=
EXTT5=
EXTT6=
EXTT7=
EXTT8=
EXTT9=
EXTT10=
EXTT11=
EXTT12=
EXTT13=
EXTT14=
EXTT15=
EXTT16=
EXTT17=
EXTT18=
EXTT19=
EXTT20=
PLAYORDER=
